<?xml version="1.0" encoding="UTF-8" standalone="no"?>
<!DOCTYPE svg PUBLIC "-//W3C//DTD SVG 1.1//EN" "http://www.w3.org/Graphics/SVG/1.1/DTD/svg11.dtd">
<svg version="1.1" xmlns="http://www.w3.org/2000/svg" xmlns:xlink="http://www.w3.org/1999/xlink" preserveAspectRatio="xMidYMid meet" viewBox="0 0 640 640" width="650" height="650"><defs><path d="M419.73 27.16L398.54 83.39L436.83 127.51L496.31 115.41L517.51 59.18L479.22 15.05L419.73 27.16Z" id="bzcMsi5BS"></path><path d="M517.23 58.86L496.04 115.09L534.33 159.22L593.81 147.11L615.01 90.88L576.72 46.76L517.23 58.86Z" id="bmXbJUqqJ"></path><path d="M438.56 125.49L498.05 113.39L536.34 157.51L515.14 213.74L455.66 225.85L417.37 181.72L438.56 125.49Z" id="b4MRu0nyoW"></path><path d="M533.71 158.5L512.51 214.73L550.8 258.86L610.29 246.75L631.49 190.52L593.2 146.4L533.71 158.5Z" id="a41UJ1yPc4"></path><path d="M357.86 193.84L417.35 181.74L455.64 225.86L434.44 282.09L374.95 294.2L336.66 250.07L357.86 193.84Z" id="f12hzIhkz7"></path><path d="M259.29 163L238.09 219.23L276.38 263.35L335.87 251.25L357.07 195.02L318.77 150.89L259.29 163Z" id="e17Xuc4BB3"></path><path d="M277.32 262.37L256.12 318.59L294.41 362.72L353.9 350.61L375.09 294.38L336.8 250.26L277.32 262.37Z" id="cFS7bLKMm"></path><path d="M294.09 363.36L272.89 419.59L311.18 463.71L370.67 451.61L391.86 395.38L353.57 351.25L294.09 363.36Z" id="bzcHPaJNW"></path><path d="M197.22 331.43L176.02 387.65L214.31 431.78L273.8 419.67L295 363.44L256.71 319.32L197.22 331.43Z" id="aOsgINwJb"></path><path d="M375.02 294.62L353.83 350.85L392.12 394.97L451.61 382.87L472.8 326.64L434.51 282.51L375.02 294.62Z" id="aD6bEquxX"></path></defs><g><g><g><use xlink:href="#bzcMsi5BS" opacity="1" fill="#efbf2d" fill-opacity="1"></use><g><use xlink:href="#bzcMsi5BS" opacity="1" fill-opacity="0" stroke="#130c07" stroke-width="3" stroke-opacity="1"></use></g></g><g><use xlink:href="#bmXbJUqqJ" opacity="1" fill="#efbf2d" fill-opacity="1"></use><g><use xlink:href="#bmXbJUqqJ" opacity="1" fill-opacity="0" stroke="#130c07" stroke-width="3" stroke-opacity="1"></use></g></g><g><use xlink:href="#b4MRu0nyoW" opacity="1" fill="#efbf2d" fill-opacity="1"></use><g><use xlink:href="#b4MRu0nyoW" opacity="1" fill-opacity="0" stroke="#130c07" stroke-width="3" stroke-opacity="1"></use></g></g><g><use xlink:href="#a41UJ1yPc4" opacity="1" fill="#efbf2d" fill-opacity="1"></use><g><use xlink:href="#a41UJ1yPc4" opacity="1" fill-opacity="0" stroke="#130c07" stroke-width="3" stroke-opacity="1"></use></g></g><g><use xlink:href="#f12hzIhkz7" opacity="1" fill="#efbf2d" fill-opacity="1"></use><g><use xlink:href="#f12hzIhkz7" opacity="1" fill-opacity="0" stroke="#130c07" stroke-width="3" stroke-opacity="1"></use></g></g><g><use xlink:href="#e17Xuc4BB3" opacity="1" fill="#efbf2d" fill-opacity="1"></use><g><use xlink:href="#e17Xuc4BB3" opacity="1" fill-opacity="0" stroke="#130c07" stroke-width="3" stroke-opacity="1"></use></g></g><g><use xlink:href="#cFS7bLKMm" opacity="1" fill="#efbf2d" fill-opacity="1"></use><g><use xlink:href="#cFS7bLKMm" opacity="1" fill-opacity="0" stroke="#130c07" stroke-width="3" stroke-opacity="1"></use></g></g><g><use xlink:href="#bzcHPaJNW" opacity="1" fill="#efbf2d" fill-opacity="1"></use><g><use xlink:href="#bzcHPaJNW" opacity="1" fill-opacity="0" stroke="#130c07" stroke-width="3" stroke-opacity="1"></use></g></g><g><use xlink:href="#aOsgINwJb" opacity="1" fill="#efbf2d" fill-opacity="1"></use><g><use xlink:href="#aOsgINwJb" opacity="1" fill-opacity="0" stroke="#130c07" stroke-width="3" stroke-opacity="1"></use></g></g><g><use xlink:href="#aD6bEquxX" opacity="1" fill="#efbf2d" fill-opacity="1"></use><g><use xlink:href="#aD6bEquxX" opacity="1" fill-opacity="0" stroke="#130c07" stroke-width="3" stroke-opacity="1"></use></g></g></g></g></svg>